<?xml version="1.0" encoding="UTF-8"?>
<svg xmlns="http://www.w3.org/2000/svg" xmlns:xlink="http://www.w3.org/1999/xlink" width="595pt" height="842pt" viewBox="0 0 595 842" version="1.1">
<defs>
<clipPath id="clip1">
  <path d="M 9.75 9.75 L 584.308594 9.75 L 584.308594 51 L 9.75 51 Z M 9.75 9.75 "/>
</clipPath>
<clipPath id="clip2">
  <path d="M 18 25 L 22 25 L 22 31 L 18 31 Z M 18 25 "/>
</clipPath>
<clipPath id="clip3">
  <path d="M 18.394531 25.886719 L 18.394531 30.496094 L 22.429688 28.363281 Z M 18.394531 25.886719 "/>
</clipPath>
<clipPath id="clip4">
  <path d="M 31 25 L 36 25 L 36 31 L 31 31 Z M 31 25 "/>
</clipPath>
<clipPath id="clip5">
  <path d="M 35.105469 25.886719 L 35.105469 30.496094 L 31.074219 28.363281 Z M 35.105469 25.886719 "/>
</clipPath>
</defs>
<g id="surface1">
<g clip-path="url(#clip1)" clip-rule="nonzero">
<path style=" stroke:none;fill-rule:nonzero;fill:rgb(100%,100%,100%);fill-opacity:1;" d="M 9.75 9.75 L 584.308594 9.75 L 584.308594 50.089844 L 9.75 50.089844 Z M 9.75 9.75 "/>
</g>
<path style=" stroke:none;fill-rule:evenodd;fill:rgb(70.979309%,12.548828%,12.548828%);fill-opacity:1;" d="M 25.285156 13.785156 L 27.640625 13.785156 C 33.992188 13.785156 39.140625 18.945312 39.140625 25.308594 L 39.140625 34.53125 C 39.140625 40.894531 33.992188 46.054688 27.640625 46.054688 L 25.285156 46.054688 C 18.933594 46.054688 13.785156 40.894531 13.785156 34.53125 L 13.785156 25.308594 C 13.785156 18.945312 18.933594 13.785156 25.285156 13.785156 Z M 25.285156 13.785156 "/>
<path style=" stroke:none;fill-rule:nonzero;fill:rgb(0%,0%,0%);fill-opacity:1;" d="M 20.125 14.9375 L 20.699219 14.9375 L 20.699219 44.902344 L 20.125 44.902344 Z M 20.125 14.9375 "/>
<path style=" stroke:none;fill-rule:nonzero;fill:rgb(0%,0%,0%);fill-opacity:1;" d="M 32.226562 14.9375 L 32.800781 14.9375 L 32.800781 44.902344 L 32.226562 44.902344 Z M 32.226562 14.9375 "/>
<path style=" stroke:none;fill-rule:evenodd;fill:rgb(0%,0%,0%);fill-opacity:1;" d="M 18.597656 20.699219 L 18.605469 20.699219 C 21.988281 20.699219 24.734375 23.480469 24.734375 26.910156 L 24.734375 28.320312 C 24.734375 31.75 21.988281 34.53125 18.605469 34.53125 L 18.597656 34.53125 C 17.847656 34.53125 17.242188 33.914062 17.242188 33.15625 L 17.242188 22.074219 C 17.242188 21.3125 17.847656 20.699219 18.597656 20.699219 Z M 18.597656 20.699219 "/>
<g clip-path="url(#clip2)" clip-rule="nonzero">
<g clip-path="url(#clip3)" clip-rule="nonzero">
<path style=" stroke:none;fill-rule:evenodd;fill:rgb(100%,100%,100%);fill-opacity:1;" d="M 20.117188 25.308594 L 20.128906 25.308594 C 21.078125 25.308594 21.851562 26.132812 21.851562 27.148438 L 21.851562 29.234375 C 21.851562 30.25 21.078125 31.074219 20.128906 31.074219 L 20.117188 31.074219 C 19.167969 31.074219 18.394531 30.25 18.394531 29.234375 L 18.394531 27.148438 C 18.394531 26.132812 19.167969 25.308594 20.117188 25.308594 Z M 20.117188 25.308594 "/>
</g>
</g>
<path style=" stroke:none;fill-rule:evenodd;fill:rgb(0%,0%,0%);fill-opacity:1;" d="M 34.320312 20.699219 L 34.328125 20.699219 C 35.078125 20.699219 35.683594 21.3125 35.683594 22.074219 L 35.683594 33.15625 C 35.683594 33.914062 35.078125 34.53125 34.328125 34.53125 L 34.320312 34.53125 C 30.933594 34.53125 28.191406 31.75 28.191406 28.320312 L 28.191406 26.910156 C 28.191406 23.480469 30.933594 20.699219 34.320312 20.699219 Z M 34.320312 20.699219 "/>
<g clip-path="url(#clip4)" clip-rule="nonzero">
<g clip-path="url(#clip5)" clip-rule="nonzero">
<path style=" stroke:none;fill-rule:evenodd;fill:rgb(100%,100%,100%);fill-opacity:1;" d="M 33.382812 25.308594 L 33.375 25.308594 C 32.421875 25.308594 31.648438 26.132812 31.648438 27.148438 L 31.648438 29.234375 C 31.648438 30.25 32.421875 31.074219 33.375 31.074219 L 33.382812 31.074219 C 34.335938 31.074219 35.105469 30.25 35.105469 29.234375 L 35.105469 27.148438 C 35.105469 26.132812 34.335938 25.308594 33.382812 25.308594 Z M 33.382812 25.308594 "/>
</g>
</g>
</g>
</svg>
