<?xml version="1.0" encoding="UTF-8"?>
<svg xmlns="http://www.w3.org/2000/svg" xmlns:xlink="http://www.w3.org/1999/xlink" width="595pt" height="842pt" viewBox="0 0 595 842" version="1.1">
<defs>
<clipPath id="clip1">
  <path d="M 9.75 9.75 L 584.308594 9.75 L 584.308594 60 L 9.75 60 Z M 9.75 9.75 "/>
</clipPath>
<clipPath id="clip2">
  <path d="M 19 23 L 48 23 L 48 52 L 19 52 Z M 19 23 "/>
</clipPath>
<clipPath id="clip3">
  <path d="M 19.546875 23.003906 L 47.785156 23.003906 L 47.785156 45.59375 L 40.726562 51.242188 L 26.605469 51.242188 L 19.546875 44.464844 Z M 19.546875 23.003906 "/>
</clipPath>
<clipPath id="clip4">
  <path d="M 24 36 L 29 36 L 29 41 L 24 41 Z M 24 36 "/>
</clipPath>
<clipPath id="clip5">
  <path d="M 19.546875 23.003906 L 47.785156 23.003906 L 47.785156 45.59375 L 40.726562 51.242188 L 26.605469 51.242188 L 19.546875 44.464844 Z M 19.546875 23.003906 "/>
</clipPath>
<clipPath id="clip6">
  <path d="M 40 36 L 45 36 L 45 41 L 40 41 Z M 40 36 "/>
</clipPath>
<clipPath id="clip7">
  <path d="M 19.546875 23.003906 L 47.785156 23.003906 L 47.785156 45.59375 L 40.726562 51.242188 L 26.605469 51.242188 L 19.546875 44.464844 Z M 19.546875 23.003906 "/>
</clipPath>
<clipPath id="clip8">
  <path d="M 28 43 L 41 43 L 41 47 L 28 47 Z M 28 43 "/>
</clipPath>
<clipPath id="clip9">
  <path d="M 19.546875 23.003906 L 47.785156 23.003906 L 47.785156 45.59375 L 40.726562 51.242188 L 26.605469 51.242188 L 19.546875 44.464844 Z M 19.546875 23.003906 "/>
</clipPath>
<clipPath id="clip10">
  <path d="M 30.496094 43.320312 L 38.5625 43.320312 L 40.292969 47.207031 L 28.765625 47.207031 Z M 30.496094 43.320312 "/>
</clipPath>
<clipPath id="clip11">
  <path d="M 23 33 L 32 33 L 32 39 L 23 39 Z M 23 33 "/>
</clipPath>
<clipPath id="clip12">
  <path d="M 19.546875 23.003906 L 47.785156 23.003906 L 47.785156 45.59375 L 40.726562 51.242188 L 26.605469 51.242188 L 19.546875 44.464844 Z M 19.546875 23.003906 "/>
</clipPath>
<clipPath id="clip13">
  <path d="M 31.648438 36.949219 L 23.003906 33.839844 L 23.003906 37.355469 L 31.648438 38.507812 Z M 31.648438 36.949219 "/>
</clipPath>
<clipPath id="clip14">
  <path d="M 37 33 L 47 33 L 47 39 L 37 39 Z M 37 33 "/>
</clipPath>
<clipPath id="clip15">
  <path d="M 19.546875 23.003906 L 47.785156 23.003906 L 47.785156 45.59375 L 40.726562 51.242188 L 26.605469 51.242188 L 19.546875 44.464844 Z M 19.546875 23.003906 "/>
</clipPath>
<clipPath id="clip16">
  <path d="M 37.410156 36.949219 L 46.054688 33.839844 L 46.054688 37.355469 L 37.410156 38.507812 Z M 37.410156 36.949219 "/>
</clipPath>
<clipPath id="clip17">
  <path d="M 18 29 L 24 29 L 24 37 L 18 37 Z M 18 29 "/>
</clipPath>
<clipPath id="clip18">
  <path d="M 23.398438 29.34375 L 18.96875 29.34375 L 18.96875 36.257812 L 20.078125 36.257812 Z M 23.398438 29.34375 "/>
</clipPath>
<clipPath id="clip19">
  <path d="M 23 28 L 32 28 L 32 36 L 23 36 Z M 23 28 "/>
</clipPath>
<clipPath id="clip20">
  <path d="M 31.441406 28.191406 L 23.582031 28.191406 L 24.976562 35.105469 Z M 31.441406 28.191406 "/>
</clipPath>
<clipPath id="clip21">
  <path d="M 28 30 L 36 30 L 36 35 L 28 35 Z M 28 30 "/>
</clipPath>
<clipPath id="clip22">
  <path d="M 31.191406 34.90625 L 28.839844 30 L 35.082031 31.097656 Z M 31.191406 34.90625 "/>
</clipPath>
<clipPath id="clip23">
  <path d="M 35 30 L 42 30 L 42 35 L 35 35 Z M 35 30 "/>
</clipPath>
<clipPath id="clip24">
  <path d="M 37.53125 34.90625 L 35.179688 30 L 41.421875 31.097656 Z M 37.53125 34.90625 "/>
</clipPath>
<clipPath id="clip25">
  <path d="M 39 30 L 47 30 L 47 35 L 39 35 Z M 39 30 "/>
</clipPath>
<clipPath id="clip26">
  <path d="M 42.140625 34.90625 L 39.789062 30 L 46.03125 31.097656 Z M 42.140625 34.90625 "/>
</clipPath>
<clipPath id="clip27">
  <path d="M 45 28 L 51 28 L 51 37 L 45 37 Z M 45 28 "/>
</clipPath>
<clipPath id="clip28">
  <path d="M 45.6875 28.851562 L 50.042969 29.621094 L 48.84375 36.429688 L 47.753906 36.238281 Z M 45.6875 28.851562 "/>
</clipPath>
</defs>
<g id="surface1">
<g clip-path="url(#clip1)" clip-rule="nonzero">
<path style=" stroke:none;fill-rule:nonzero;fill:rgb(100%,100%,100%);fill-opacity:1;" d="M 9.75 9.75 L 584.308594 9.75 L 584.308594 59.3125 L 9.75 59.3125 Z M 9.75 9.75 "/>
</g>
<path style=" stroke:none;fill-rule:evenodd;fill:rgb(34.509277%,65.881348%,28.234863%);fill-opacity:1;" d="M 19.027344 30.496094 L 22.945312 30.496094 C 24.570312 30.496094 25.886719 31.734375 25.886719 33.261719 L 25.886719 36.949219 C 25.886719 38.480469 24.570312 39.71875 22.945312 39.71875 L 19.027344 39.71875 C 17.40625 39.71875 16.089844 38.480469 16.089844 36.949219 L 16.089844 33.261719 C 16.089844 31.734375 17.40625 30.496094 19.027344 30.496094 Z M 19.027344 30.496094 "/>
<path style=" stroke:none;fill-rule:evenodd;fill:rgb(34.509277%,65.881348%,28.234863%);fill-opacity:1;" d="M 44.960938 30.496094 L 48.878906 30.496094 C 50.503906 30.496094 51.820312 31.734375 51.820312 33.261719 L 51.820312 36.949219 C 51.820312 38.480469 50.503906 39.71875 48.878906 39.71875 L 44.960938 39.71875 C 43.339844 39.71875 42.023438 38.480469 42.023438 36.949219 L 42.023438 33.261719 C 42.023438 31.734375 43.339844 30.496094 44.960938 30.496094 Z M 44.960938 30.496094 "/>
<g clip-path="url(#clip2)" clip-rule="nonzero">
<g clip-path="url(#clip3)" clip-rule="nonzero">
<path style=" stroke:none;fill-rule:nonzero;fill:rgb(34.509277%,65.881348%,28.234863%);fill-opacity:1;" d="M 19.546875 23.003906 L 47.785156 23.003906 L 47.785156 51.242188 L 19.546875 51.242188 Z M 19.546875 23.003906 "/>
</g>
</g>
<g clip-path="url(#clip4)" clip-rule="nonzero">
<g clip-path="url(#clip5)" clip-rule="nonzero">
<path style=" stroke:none;fill-rule:evenodd;fill:rgb(0%,0%,0%);fill-opacity:1;" d="M 26.75 36.257812 C 27.863281 36.257812 28.765625 37.164062 28.765625 38.277344 C 28.765625 39.390625 27.863281 40.292969 26.75 40.292969 C 25.636719 40.292969 24.734375 39.390625 24.734375 38.277344 C 24.734375 37.164062 25.636719 36.257812 26.75 36.257812 Z M 26.75 36.257812 "/>
</g>
</g>
<g clip-path="url(#clip6)" clip-rule="nonzero">
<g clip-path="url(#clip7)" clip-rule="nonzero">
<path style=" stroke:none;fill-rule:evenodd;fill:rgb(0%,0%,0%);fill-opacity:1;" d="M 42.308594 36.257812 C 43.425781 36.257812 44.328125 37.164062 44.328125 38.277344 C 44.328125 39.390625 43.425781 40.292969 42.308594 40.292969 C 41.195312 40.292969 40.292969 39.390625 40.292969 38.277344 C 40.292969 37.164062 41.195312 36.257812 42.308594 36.257812 Z M 42.308594 36.257812 "/>
</g>
</g>
<g clip-path="url(#clip8)" clip-rule="nonzero">
<g clip-path="url(#clip9)" clip-rule="nonzero">
<g clip-path="url(#clip10)" clip-rule="nonzero">
<path style=" stroke:none;fill-rule:nonzero;fill:rgb(100%,100%,100%);fill-opacity:1;" d="M 28.765625 38.5625 L 40.292969 38.5625 L 40.292969 46.632812 L 28.765625 46.632812 Z M 28.765625 38.5625 "/>
</g>
</g>
</g>
<g clip-path="url(#clip11)" clip-rule="nonzero">
<g clip-path="url(#clip12)" clip-rule="nonzero">
<g clip-path="url(#clip13)" clip-rule="nonzero">
<path style=" stroke:none;fill-rule:nonzero;fill:rgb(19.607544%,42.744446%,14.901733%);fill-opacity:1;" d="M 31.648438 33.378906 L 23.003906 33.378906 L 23.003906 39.140625 L 31.648438 39.140625 Z M 31.648438 33.378906 "/>
</g>
</g>
</g>
<g clip-path="url(#clip14)" clip-rule="nonzero">
<g clip-path="url(#clip15)" clip-rule="nonzero">
<g clip-path="url(#clip16)" clip-rule="nonzero">
<path style=" stroke:none;fill-rule:nonzero;fill:rgb(19.607544%,42.744446%,14.901733%);fill-opacity:1;" d="M 37.410156 33.378906 L 46.054688 33.378906 L 46.054688 39.140625 L 37.410156 39.140625 Z M 37.410156 33.378906 "/>
</g>
</g>
</g>
<path style=" stroke:none;fill-rule:evenodd;fill:rgb(0%,0%,0%);fill-opacity:1;" d="M 29.582031 17.816406 L 39.480469 17.816406 C 45.339844 17.816406 50.089844 22.65625 50.089844 28.625 C 50.089844 30.613281 48.507812 32.226562 46.554688 32.226562 L 20.738281 32.226562 C 19.761719 32.226562 18.96875 31.417969 18.96875 30.425781 L 18.96875 28.625 C 18.96875 22.65625 23.722656 17.816406 29.582031 17.816406 Z M 29.582031 17.816406 "/>
<g clip-path="url(#clip17)" clip-rule="nonzero">
<g clip-path="url(#clip18)" clip-rule="nonzero">
<path style=" stroke:none;fill-rule:nonzero;fill:rgb(0%,0%,0%);fill-opacity:1;" d="M 28.191406 29.34375 L 18.96875 29.34375 L 18.96875 36.257812 L 28.191406 36.257812 Z M 28.191406 29.34375 "/>
</g>
</g>
<g clip-path="url(#clip19)" clip-rule="nonzero">
<g clip-path="url(#clip20)" clip-rule="nonzero">
<path style=" stroke:none;fill-rule:nonzero;fill:rgb(0%,0%,0%);fill-opacity:1;" d="M 23.582031 28.191406 L 36.257812 28.191406 L 36.257812 35.105469 L 23.582031 35.105469 Z M 23.582031 28.191406 "/>
</g>
</g>
<g clip-path="url(#clip21)" clip-rule="nonzero">
<g clip-path="url(#clip22)" clip-rule="nonzero">
<path style=" stroke:none;fill-rule:nonzero;fill:rgb(0%,0%,0%);fill-opacity:1;" d="M 28.839844 30 L 35.082031 31.097656 L 33.882812 37.910156 L 27.640625 36.808594 Z M 28.839844 30 "/>
</g>
</g>
<g clip-path="url(#clip23)" clip-rule="nonzero">
<g clip-path="url(#clip24)" clip-rule="nonzero">
<path style=" stroke:none;fill-rule:nonzero;fill:rgb(0%,0%,0%);fill-opacity:1;" d="M 35.179688 30 L 41.421875 31.097656 L 40.222656 37.910156 L 33.976562 36.808594 Z M 35.179688 30 "/>
</g>
</g>
<g clip-path="url(#clip25)" clip-rule="nonzero">
<g clip-path="url(#clip26)" clip-rule="nonzero">
<path style=" stroke:none;fill-rule:nonzero;fill:rgb(0%,0%,0%);fill-opacity:1;" d="M 39.789062 30 L 46.03125 31.097656 L 44.832031 37.910156 L 38.589844 36.808594 Z M 39.789062 30 "/>
</g>
</g>
<g clip-path="url(#clip27)" clip-rule="nonzero">
<g clip-path="url(#clip28)" clip-rule="nonzero">
<path style=" stroke:none;fill-rule:nonzero;fill:rgb(0%,0%,0%);fill-opacity:1;" d="M 40.964844 28.019531 L 50.042969 29.621094 L 48.84375 36.429688 L 39.761719 34.828125 Z M 40.964844 28.019531 "/>
</g>
</g>
</g>
</svg>
